<svg width="22" height="22" viewBox="0 0 22 22" fill="none" xmlns="http://www.w3.org/2000/svg">
<g clip-path="url(#clip0_58_905)">
<path d="M19.2225 5.68506L11.66 1.54717C11.4579 1.43552 11.2309 1.37695 11 1.37695C10.7691 1.37695 10.5421 1.43552 10.34 1.54717L2.7775 5.68677C2.56153 5.80494 2.38125 5.97893 2.25547 6.19056C2.1297 6.4022 2.06306 6.64371 2.0625 6.8899V15.109C2.06306 15.3551 2.1297 15.5967 2.25547 15.8083C2.38125 16.0199 2.56153 16.1939 2.7775 16.3121L10.34 20.4517C10.5421 20.5633 10.7691 20.6219 11 20.6219C11.2309 20.6219 11.4579 20.5633 11.66 20.4517L19.2225 16.3121C19.4385 16.1939 19.6188 16.0199 19.7445 15.8083C19.8703 15.5967 19.9369 15.3551 19.9375 15.109V6.89076C19.9374 6.64414 19.871 6.40208 19.7452 6.18995C19.6194 5.97782 19.4389 5.80343 19.2225 5.68506ZM11 10.3128L4.09492 6.53154L11 2.75029L17.9051 6.53154L11 10.3128ZM11.6875 18.8756V11.5013L18.5625 7.73896V15.109L11.6875 18.8756Z" fill="#133025"/>
</g>
<defs>
<clipPath id="clip0_58_905">
<rect width="22" height="22" fill="white"/>
</clipPath>
</defs>
</svg>
