<svg width="672" height="672" viewBox="0 0 672 672" fill="none" xmlns="http://www.w3.org/2000/svg">
<path d="M669.898 304.426C671.584 294.894 672.855 281.987 671.288 274.379C670.342 269.701 668.508 266.652 665.699 265.024C658.129 260.643 643.314 265.646 629.002 270.442C612.501 276.007 596.888 281.247 586.656 274.823C581.807 271.774 578.85 266.475 577.903 259.015C576.602 248.89 583.078 241.815 603.482 222.543C633.644 194.005 645.443 169.967 638.553 151.05C633.911 138.321 623.561 135.242 611.555 131.66C604.28 129.499 596.77 127.249 590.412 122.601C570.008 107.681 574.917 88.6163 579.234 71.7718C582.309 59.7528 585.237 48.4146 579.766 38.7046C576.159 32.2806 572.788 29.4683 568.529 25.9751C551.94 14.9625 550.905 14.2816 538.574 12.6238C524.025 10.6404 512.463 17.6564 500.221 25.1165C489.871 31.3925 479.166 37.9053 466.244 39.0598C448.058 40.688 436.436 29.3202 425.17 18.3373C413.105 6.58467 402.726 -3.59897 385.072 1.22642C364.786 6.76229 364.786 6.76232 343.052 107C340.479 118.871 333.116 122.838 328.946 124.141C322.056 126.331 313.865 124.496 308.572 119.582C297.305 109.132 292.633 95.4251 288.138 82.1923C283.939 69.818 279.947 58.0949 270.899 49.2731C263.624 42.1682 254.989 39.7703 245.202 42.1682C223.999 47.3489 202.087 74.2881 190.673 109.161C166.957 181.601 186.178 260.672 195.523 291.282C199.869 305.551 204.837 321.715 197.119 329.856C193.127 334.06 186.651 335.096 177.81 332.935C168.997 330.774 161.132 326.303 153.502 321.981C141.763 315.321 130.644 309.045 116.864 311.294C95.7209 314.758 86.7313 323.817 82.5618 345.901C78.8359 365.647 98.7667 393.622 114.764 416.091C130.319 437.939 141.585 453.747 135.937 464.138C131.945 471.509 121.595 471.894 114.203 471.568C78.9542 469.999 57.2787 475.091 51.542 486.252C46.3375 496.346 52.9615 512.954 71.7685 537.052L72.3894 537.821C96.3418 568.639 140.432 575.684 172.753 553.866C204.601 532.374 236.596 502.238 267.853 464.286C330.277 388.53 381.05 303.065 430.167 220.411C462.784 165.497 496.554 108.688 533.458 55.1346L540.821 60.0784C530.206 76.3307 527.722 80.5937 511.605 108.362C375.846 370.502 330.07 458.898 243.22 544.808C223.822 563.991 202.945 579.71 181.181 591.552C105.864 632.464 48.2301 616.922 0 597.147V633.855C48.9398 653.482 97.022 642.233 117.751 637.378C119.555 636.964 121.181 636.579 122.571 636.283C134.281 633.707 141.053 632.286 147.056 632.286C154.744 632.286 161.161 634.625 175.089 639.954C208.268 652.624 238.282 661.416 272.407 668.432C287.813 671.6 295.768 672.103 306.709 671.985C306.916 671.985 329.892 670.504 338.527 656.916C343.17 649.634 342.874 639.806 337.67 627.698C333.293 617.544 328.355 606.028 332.613 597.62C334.712 593.476 338.675 590.693 344.412 589.391C367.98 583.973 390.188 589.805 411.656 595.489C430.463 600.462 448.206 605.14 466.865 602.89C487.091 600.433 515.686 591.048 529.732 572.576C535.706 564.731 537.776 557.596 536.061 550.787C533.399 540.189 521.482 530.006 500.635 520.533C488.57 515.056 474.908 508.839 471.064 499.218C469.408 495.103 469.467 491.225 471.182 487.643C475.529 478.614 489.959 474.262 505.218 469.674C592.097 443.593 629.179 389.389 643.166 368.992C643.403 368.725 663.866 338.323 669.898 304.426Z" fill="#E7E7E7"/>
</svg>
