<svg width="68" height="67" viewBox="0 0 68 67" fill="none" xmlns="http://www.w3.org/2000/svg">
<path d="M60.6848 66.6451H7.19017C3.56674 66.6451 0.617615 63.6956 0.617615 60.0718V6.57326C0.617615 2.94944 3.56475 0 7.19017 0H60.6848C64.3083 0 67.2574 2.94745 67.2574 6.57326V60.0738C67.2574 63.6976 64.3083 66.6451 60.6848 66.6451ZM7.19017 1.19009C4.2232 1.19009 1.80758 3.60399 1.80758 6.57326V60.0738C1.80758 63.0411 4.22122 65.457 7.19017 65.457H60.6848C63.6518 65.457 66.0674 63.043 66.0674 60.0738V6.57326C66.0674 3.60597 63.6538 1.19009 60.6848 1.19009H7.19017Z" fill="#C19A44"/>
<path d="M59.9888 63.6084H7.8883C5.55399 63.6084 3.65601 61.7102 3.65601 59.3756V7.26948C3.65601 4.93492 5.55399 3.03673 7.8883 3.03673H59.9888C62.3231 3.03673 64.2211 4.93492 64.2211 7.26948V59.3756C64.2211 61.7102 62.3211 63.6084 59.9888 63.6084ZM7.8883 4.22682C6.21045 4.22682 4.84597 5.59145 4.84597 7.26948V59.3756C4.84597 61.0536 6.21045 62.4183 7.8883 62.4183H59.9888C61.6666 62.4183 63.0311 61.0536 63.0311 59.3756V7.26948C63.0311 5.59145 61.6666 4.22682 59.9888 4.22682H7.8883Z" fill="#C19A44"/>
<path d="M56.7897 31.0653C56.9027 30.4266 56.988 29.5618 56.8829 29.0521C56.8194 28.7387 56.6964 28.5344 56.508 28.4253C56.0003 28.1318 55.0067 28.467 54.0468 28.7883C52.9401 29.1612 51.893 29.5123 51.2068 29.0818C50.8815 28.8775 50.6832 28.5225 50.6197 28.0227C50.5325 27.3443 50.9668 26.8703 52.3352 25.579C54.3582 23.6669 55.1495 22.0563 54.6874 20.7889C54.376 19.936 53.6819 19.7297 52.8767 19.4897C52.3888 19.3449 51.885 19.1942 51.4586 18.8828C50.0902 17.8831 50.4194 16.6057 50.709 15.4771C50.9152 14.6718 51.1116 13.9122 50.7447 13.2616C50.5027 12.8312 50.2766 12.6427 49.991 12.4087C48.8784 11.6708 48.809 11.6252 47.982 11.5141C47.0062 11.3812 46.2308 11.8513 45.4097 12.3511C44.7155 12.7716 43.9976 13.208 43.1309 13.2854C41.9112 13.3945 41.1318 12.6328 40.3761 11.8969C39.567 11.1095 38.8708 10.4272 37.6868 10.7505C36.3263 11.1214 36.3263 11.1214 34.8686 17.8375C34.6961 18.6328 34.2022 18.8986 33.9226 18.9859C33.4605 19.1327 32.9111 19.0097 32.5561 18.6804C31.8005 17.9803 31.4871 17.0619 31.1857 16.1753C30.9041 15.3462 30.6363 14.5608 30.0294 13.9697C29.5415 13.4936 28.9624 13.333 28.306 13.4936C26.884 13.8407 25.4144 15.6457 24.6488 17.9823C23.0582 22.8358 24.3474 28.1337 24.9741 30.1847C25.2656 31.1407 25.5988 32.2237 25.0812 32.7691C24.8134 33.0508 24.3791 33.1202 23.7861 32.9754C23.1951 32.8306 22.6676 32.5311 22.1559 32.2415C21.3685 31.7952 20.6228 31.3747 19.6986 31.5255C18.2806 31.7576 17.6776 32.3645 17.398 33.8442C17.1481 35.1672 18.4848 37.0416 19.5578 38.547C20.601 40.0108 21.3566 41.07 20.9778 41.7662C20.7101 42.2601 20.0159 42.2859 19.5201 42.2641C17.156 42.159 15.7023 42.5001 15.3176 43.2479C14.9685 43.9242 15.4128 45.037 16.6741 46.6515L16.7158 46.7031C18.3222 48.7679 21.2793 49.24 23.447 47.7782C25.5829 46.3382 27.7288 44.319 29.8252 41.7761C34.0118 36.7004 37.4171 30.9741 40.7113 25.4362C42.8989 21.7568 45.1638 17.9505 47.6389 14.3624L48.1327 14.6936C47.4207 15.7826 47.2541 16.0682 46.1732 17.9287C37.0681 35.4925 33.998 41.4151 28.1731 47.1712C26.8721 48.4565 25.4719 49.5097 24.0122 50.3031C18.9608 53.0443 15.0954 52.003 11.8607 50.678V53.1375C15.143 54.4526 18.3678 53.6989 19.7581 53.3736C19.8791 53.3458 19.9882 53.32 20.0814 53.3002C20.8667 53.1276 21.3209 53.0324 21.7235 53.0324C22.2392 53.0324 22.6695 53.1891 23.6037 53.5461C25.8289 54.3951 27.8419 54.9842 30.1306 55.4542C31.1639 55.6665 31.6974 55.7002 32.4312 55.6923C32.4451 55.6923 33.986 55.5931 34.5652 54.6827C34.8765 54.1947 34.8567 53.5362 34.5077 52.725C34.2141 52.0446 33.8829 51.2731 34.1685 50.7097C34.3093 50.4321 34.5751 50.2456 34.9598 50.1583C36.5405 49.7954 38.0299 50.1861 39.4698 50.5669C40.7311 50.9002 41.9211 51.2136 43.1725 51.0628C44.5291 50.8982 46.4469 50.2694 47.389 49.0317C47.7896 48.5061 47.9284 48.0281 47.8134 47.5719C47.6349 46.8618 46.8356 46.1795 45.4374 45.5448C44.6283 45.1778 43.712 44.7613 43.4542 44.1166C43.3431 43.8409 43.3471 43.5811 43.4621 43.3411C43.7537 42.7361 44.7215 42.4446 45.7448 42.1371C51.5717 40.3897 54.0587 36.7579 54.9968 35.3913C55.0127 35.3734 56.3851 33.3364 56.7897 31.0653Z" fill="white"/>
</svg>
