<svg width="110" height="104" viewBox="0 0 110 104" fill="none" xmlns="http://www.w3.org/2000/svg">
<path d="M81.6848 66.6451H28.1902C24.5667 66.6451 21.6176 63.6956 21.6176 60.0718V6.57326C21.6176 2.94944 24.5648 0 28.1902 0H81.6848C85.3083 0 88.2574 2.94745 88.2574 6.57326V60.0738C88.2574 63.6976 85.3083 66.6451 81.6848 66.6451ZM28.1902 1.19009C25.2232 1.19009 22.8076 3.60399 22.8076 6.57326V60.0738C22.8076 63.0411 25.2212 65.457 28.1902 65.457H81.6848C84.6518 65.457 87.0674 63.0431 87.0674 60.0738V6.57326C87.0674 3.60597 84.6538 1.19009 81.6848 1.19009H28.1902Z" fill="#C19A44"/>
<path d="M80.9887 63.6084H28.8883C26.554 63.6084 24.656 61.7102 24.656 59.3756V7.26948C24.656 4.93492 26.554 3.03673 28.8883 3.03673H80.9887C83.3231 3.03673 85.221 4.93492 85.221 7.26948V59.3756C85.221 61.7102 83.3211 63.6084 80.9887 63.6084ZM28.8883 4.22682C27.2105 4.22682 25.846 5.59145 25.846 7.26948V59.3756C25.846 61.0536 27.2105 62.4183 28.8883 62.4183H80.9887C82.6666 62.4183 84.0311 61.0536 84.0311 59.3756V7.26948C84.0311 5.59145 82.6666 4.22682 80.9887 4.22682H28.8883Z" fill="#C19A44"/>
<path d="M77.7897 31.0653C77.9027 30.4266 77.988 29.5618 77.8829 29.0521C77.8194 28.7387 77.6964 28.5344 77.508 28.4253C77.0003 28.1318 76.0067 28.467 75.0468 28.7883C73.9401 29.1612 72.893 29.5123 72.2068 29.0818C71.8815 28.8775 71.6832 28.5225 71.6197 28.0227C71.5325 27.3443 71.9668 26.8703 73.3352 25.579C75.3582 23.6669 76.1495 22.0563 75.6874 20.7889C75.376 19.936 74.6819 19.7297 73.8767 19.4897C73.3888 19.3449 72.885 19.1942 72.4586 18.8828C71.0902 17.8831 71.4194 16.6057 71.709 15.4771C71.9152 14.6718 72.1116 13.9122 71.7447 13.2616C71.5027 12.8312 71.2766 12.6427 70.991 12.4087C69.8784 11.6708 69.809 11.6252 68.982 11.5141C68.0062 11.3812 67.2308 11.8513 66.4097 12.3511C65.7155 12.7716 64.9976 13.208 64.1309 13.2854C62.9112 13.3945 62.1318 12.6328 61.3761 11.8969C60.567 11.1095 59.8708 10.4272 58.6868 10.7505C57.3263 11.1214 57.3263 11.1214 55.8686 17.8375C55.6961 18.6328 55.2022 18.8986 54.9226 18.9859C54.4605 19.1327 53.9111 19.0097 53.5561 18.6804C52.8005 17.9803 52.4871 17.0619 52.1857 16.1753C51.9041 15.3462 51.6363 14.5608 51.0294 13.9697C50.5415 13.4936 49.9624 13.333 49.306 13.4936C47.884 13.8407 46.4144 15.6457 45.6488 17.9823C44.0582 22.8358 45.3474 28.1337 45.9741 30.1847C46.2656 31.1407 46.5988 32.2237 46.0812 32.7691C45.8134 33.0508 45.3791 33.1202 44.7861 32.9754C44.1951 32.8306 43.6676 32.5311 43.1559 32.2415C42.3685 31.7952 41.6228 31.3747 40.6986 31.5255C39.2806 31.7576 38.6776 32.3645 38.398 33.8442C38.1481 35.1672 39.4848 37.0416 40.5578 38.547C41.601 40.0108 42.3566 41.07 41.9778 41.7662C41.7101 42.2601 41.0159 42.2859 40.5201 42.2641C38.156 42.159 36.7023 42.5001 36.3176 43.2479C35.9685 43.9242 36.4128 45.037 37.6741 46.6515L37.7158 46.7031C39.3222 48.7679 42.2793 49.24 44.447 47.7782C46.5829 46.3382 48.7288 44.319 50.8252 41.7761C55.0118 36.7004 58.4171 30.9741 61.7113 25.4362C63.8989 21.7568 66.1638 17.9505 68.6389 14.3624L69.1327 14.6936C68.4207 15.7826 68.2541 16.0682 67.1732 17.9287C58.0681 35.4925 54.998 41.4151 49.1731 47.1712C47.8721 48.4565 46.4719 49.5097 45.0122 50.3031C39.9608 53.0443 36.0954 52.003 32.8607 50.678V53.1375C36.143 54.4526 39.3678 53.6989 40.7581 53.3736C40.8791 53.3458 40.9882 53.32 41.0814 53.3002C41.8667 53.1276 42.3209 53.0324 42.7235 53.0324C43.2392 53.0324 43.6695 53.1891 44.6036 53.5461C46.8289 54.3951 48.8419 54.9842 51.1306 55.4542C52.1639 55.6665 52.6974 55.7002 53.4312 55.6923C53.4451 55.6923 54.986 55.5931 55.5652 54.6827C55.8765 54.1947 55.8567 53.5362 55.5077 52.725C55.2141 52.0446 54.8829 51.2731 55.1685 50.7097C55.3093 50.4321 55.5751 50.2456 55.9598 50.1583C57.5405 49.7954 59.0299 50.1861 60.4698 50.5669C61.7311 50.9002 62.9211 51.2136 64.1725 51.0628C65.5291 50.8982 67.4469 50.2694 68.389 49.0317C68.7896 48.5061 68.9284 48.0281 68.8134 47.5719C68.6349 46.8618 67.8356 46.1795 66.4374 45.5448C65.6283 45.1778 64.712 44.7613 64.4542 44.1166C64.3431 43.8409 64.3471 43.5811 64.4621 43.3411C64.7537 42.7361 65.7215 42.4446 66.7448 42.1371C72.5717 40.3897 75.0587 36.7579 75.9968 35.3913C76.0127 35.3734 77.3851 33.3364 77.7897 31.0653Z" fill="white"/>
<path d="M10.5212 79.7738V86.0098C10.5212 86.2122 10.4597 86.4065 10.3288 86.6069C10.2118 86.7933 10.0829 86.9103 9.94405 86.952L9.71002 87.0234V87.7196H11.5366L11.727 87.6879L11.8718 87.4518C11.9015 87.4062 11.9293 87.3646 11.9571 87.3209C12.0245 87.2079 12.082 87.0928 12.1237 86.9877C12.2625 86.6862 12.3418 86.3827 12.3636 86.0733V80.3549C12.3636 79.6905 12.3061 79.141 12.1911 78.7166C12.0899 78.3615 11.9273 78.0263 11.7111 77.7189V77.7169C11.13 76.9057 10.2634 76.4951 9.13487 76.4951C8.05597 76.4951 7.21507 76.8104 6.63199 77.4352C5.89818 76.8025 4.97794 76.4812 3.88912 76.4812C2.74875 76.4812 1.78488 76.8303 1.01934 77.5205C0.707969 77.7962 0.458071 78.1453 0.28156 78.5579C0.105049 78.9665 0.00985531 79.3989 -6.10352e-05 79.8472V84.3774C-6.10352e-05 84.8198 0.0931535 85.2502 0.273631 85.6528C0.452125 86.0654 0.702017 86.4165 1.01736 86.6961C1.77298 87.3765 2.73883 87.7216 3.88714 87.7216C5.06322 87.7216 6.03701 87.3586 6.78272 86.6406C7.06038 86.3728 7.28448 86.0178 7.44711 85.5854C7.60775 85.1589 7.68907 84.7126 7.68907 84.2604V79.8769C7.68312 79.6091 7.64345 79.3255 7.56808 79.0339C7.49074 78.7404 7.38562 78.4667 7.2587 78.2227C7.32811 78.1295 7.40348 78.0481 7.47885 77.9847C7.93698 77.6177 8.35941 77.4293 8.73425 77.4253L8.79573 77.4333C9.28361 77.4511 9.65846 77.5999 9.94405 77.8895C10.3229 78.2762 10.5172 78.911 10.5212 79.7738ZM4.02003 86.7418C3.61346 86.7418 3.27629 86.6842 3.01847 86.5712C2.73883 86.4482 2.51472 86.2479 2.33226 85.9603C2.14584 85.6627 2.04072 85.1272 2.0189 84.3735V79.8313C2.00106 79.143 2.10617 78.6114 2.33226 78.2524C2.6833 77.701 3.23663 77.4333 4.022 77.4333C4.75184 77.4333 5.26948 77.6495 5.60466 78.0938C5.73754 78.2683 5.83868 78.5281 5.90413 78.8634C5.95371 79.1331 5.9795 79.4029 5.9795 79.6647V84.4171L5.97156 84.5242C5.93784 84.9685 5.90413 85.2859 5.86645 85.4684C5.81488 85.7381 5.72762 85.9543 5.60267 86.1169C5.42814 86.347 5.21395 86.5097 4.95612 86.6089C4.71218 86.6981 4.39685 86.7418 4.02003 86.7418Z" fill="white"/>
<path d="M21.2268 86.589C21.443 86.3093 21.5997 85.982 21.6909 85.6171C21.7623 85.3572 21.798 85.0815 21.798 84.7979V79.7241L21.7841 78.7245L21.7742 78.5281H21.7524C21.6651 78.0104 21.4053 77.574 20.977 77.2309C20.5129 76.8679 19.8683 76.622 19.0591 76.503C18.8608 76.4792 18.6268 76.4653 18.369 76.4653H18.0972L17.6768 76.493L17.6708 76.495C16.5939 76.6101 15.8026 77.0583 15.3167 77.8359C15.16 78.0997 15.041 78.3932 14.9657 78.7046C14.9359 78.8216 14.9121 78.9387 14.8962 79.0517C14.8903 79.0934 14.8883 79.137 14.8883 79.1846C14.8844 79.2223 14.8804 79.258 14.8804 79.2838C14.8705 79.5436 14.8546 79.7559 14.8308 79.9205C14.8189 80.0197 14.809 80.0534 14.811 80.0534L14.7931 80.0772C14.7931 80.0772 14.7554 80.1307 14.5373 80.1466L14.2219 80.1645V80.8825L14.5254 80.9003C14.6761 80.9142 14.9042 80.9618 15.2116 81.0451C15.3088 81.0689 15.4595 81.1027 15.6618 81.1463C15.8343 81.186 15.9672 81.2137 16.0485 81.2296C16.1874 81.2673 16.2905 81.297 16.346 81.3129L16.818 81.5132L16.8002 80.9916C16.7804 80.5869 16.7744 80.0593 16.7784 79.4246V79.2263C16.7823 78.7145 16.8637 78.3178 17.0164 78.0481C17.2246 77.6911 17.5895 77.4828 18.1171 77.4154C18.7021 77.3797 19.1424 77.5264 19.4697 77.8656C19.6184 78.0144 19.7315 78.1949 19.8029 78.4031C19.8663 78.5737 19.8961 78.7403 19.8921 78.901V84.8356C19.8921 85.4465 19.7275 85.9166 19.3884 86.2676C19.0928 86.5771 18.7478 86.7338 18.3333 86.7516C17.6689 86.7853 17.0461 86.5929 16.4789 86.1863C15.9117 85.7857 15.5884 85.266 15.4853 84.5976L15.4496 84.3615L14.8249 84.2604L14.1406 86.6921L14.3647 86.823C15.4674 87.4141 16.8042 87.7136 18.3352 87.7136H18.365C19.6858 87.7156 20.6497 87.3348 21.2268 86.589Z" fill="white"/>
<path d="M24.7036 86.6941C25.4593 87.3744 26.4251 87.7195 27.5734 87.7195C28.7475 87.7195 29.7233 87.3565 30.469 86.6385C30.7467 86.3708 30.9708 86.0157 31.1334 85.5833C31.294 85.1569 31.3753 84.7106 31.3753 84.2583V79.8749C31.3694 79.6071 31.3297 79.3234 31.2544 79.0319C31.177 78.7383 31.0719 78.4646 30.945 78.2206C31.0144 78.1274 31.0898 78.0461 31.1651 77.9826C31.6233 77.6157 32.0457 77.4272 32.4205 77.4233L32.482 77.4312C32.9699 77.449 33.3447 77.5978 33.6303 77.8874C34.0071 78.2722 34.1995 78.9069 34.2035 79.7697V86.0058C34.2035 86.2081 34.142 86.4025 34.0111 86.6028C33.8941 86.7893 33.7652 86.9063 33.6264 86.948L33.3923 87.0194V87.7156H35.2189L35.4093 87.6838L35.5541 87.4478C35.5839 87.4022 35.6116 87.3605 35.6394 87.3169C35.7068 87.2038 35.7643 87.0888 35.806 86.9837C35.9448 86.6822 36.0241 86.3787 36.0459 86.0693V80.3509C36.0459 79.6864 35.9884 79.137 35.8734 78.7125C35.7723 78.3575 35.6096 78.0223 35.3934 77.7148V77.7128C34.8123 76.9016 33.9457 76.491 32.8172 76.491C31.7383 76.491 30.8974 76.8064 30.3143 77.4312C29.5805 76.7985 28.6603 76.4771 27.5714 76.4771C26.4311 76.4771 25.4652 76.8262 24.7017 77.5165C24.3903 77.7922 24.1404 78.1413 23.9639 78.5539C23.7874 78.9624 23.6922 79.3948 23.6823 79.8431V84.3734C23.6823 84.8157 23.7755 85.2461 23.9559 85.6488C24.1364 86.0633 24.3883 86.4144 24.7036 86.6941ZM29.6539 84.5261C29.6202 84.9704 29.5864 85.2878 29.5488 85.4703C29.4972 85.74 29.408 85.9562 29.285 86.1189C29.1105 86.3489 28.8963 86.5116 28.6384 86.6108C28.3945 86.698 28.0792 86.7417 27.7024 86.7417C27.2958 86.7417 26.9586 86.6842 26.7008 86.5711C26.4192 86.4481 26.197 86.2478 26.0146 85.9602C25.8281 85.6627 25.723 85.1271 25.7012 84.3734V79.8312C25.6834 79.1429 25.7885 78.6114 26.0146 78.2524C26.3656 77.7009 26.9189 77.4332 27.7043 77.4332C28.4342 77.4332 28.9518 77.6494 29.287 78.0937C29.4199 78.2682 29.521 78.5281 29.5865 78.8633C29.636 79.133 29.6618 79.4028 29.6618 79.6646V84.417L29.6539 84.5261Z" fill="white"/>
<path d="M47.9178 87.0095L47.6837 86.9381C47.3644 86.8409 47.1641 86.581 47.0749 86.1447C47.0392 85.9523 47.0213 85.4882 47.0213 84.7622V83.4432C47.0213 81.9298 46.7734 80.8884 46.2597 80.2577C45.7302 79.6151 44.8655 79.2898 43.6914 79.2898C42.4995 79.2898 41.605 79.6369 41.0199 80.3212L41.0299 78.7899L41.0437 78.5261C41.0675 77.7089 41.0814 77.1575 41.0874 76.8778L41.1052 76.3641L40.6253 76.5605C40.0422 76.8104 39.3857 76.981 38.6599 77.0702L38.3842 77.1218V77.8319L38.6956 77.8497C39.0049 77.8636 39.0823 77.9906 39.114 78.0858C39.1259 78.1314 39.1358 78.2048 39.1438 78.2941C39.1537 78.4329 39.1576 78.6412 39.1576 78.9109V84.9447C39.1576 85.9582 39.0704 86.3688 38.997 86.5315C38.9058 86.7278 38.7432 86.8587 38.4952 86.9341L38.2612 87.0055V87.7354L38.6321 87.6997C38.886 87.672 39.0843 87.6581 39.2191 87.6581H40.893C41.2064 87.662 41.4424 87.6759 41.601 87.6997L41.9679 87.7354V87.0055L41.7339 86.9341C41.3809 86.829 41.1687 86.5136 41.0854 85.98C41.0735 85.8848 41.0576 85.5258 41.0576 84.3576V83.2746C41.0576 82.4038 41.244 81.6997 41.6109 81.18C42.0096 80.5969 42.5887 80.3132 43.382 80.3132C44.0543 80.3132 44.5164 80.5096 44.7941 80.9142C45.0956 81.3605 45.2483 82.1519 45.2483 83.2607V84.7523C45.2483 85.9027 45.159 86.351 45.0837 86.5255C45.0023 86.7258 44.8397 86.8607 44.5859 86.9341L44.3518 87.0055V87.7196L44.7108 87.7017C44.927 87.6839 45.0936 87.672 45.2126 87.666C45.2979 87.662 45.3554 87.6581 45.3811 87.6581H46.8468C47.1562 87.662 47.3922 87.6759 47.5528 87.6997L47.9138 87.7354V87.0095H47.9178Z" fill="white"/>
<path d="M56.3486 77.5482C55.5592 76.8282 54.5299 76.4632 53.2904 76.4632C52.0826 76.4632 51.0652 76.8064 50.2679 77.4847C49.9367 77.7664 49.6729 78.1174 49.4845 78.528C49.2961 78.9346 49.1989 79.369 49.195 79.8153C49.189 79.9601 49.187 80.6444 49.187 81.9079C49.187 82.3581 49.189 82.8996 49.195 83.5343V86.0216C49.195 86.3965 49.2802 86.7496 49.4488 87.0689C49.5103 87.182 49.5817 87.291 49.657 87.3942C49.6888 87.4358 49.7225 87.4795 49.7562 87.5172L49.9327 87.7175H52.0568V87.0411L51.8605 86.9519C51.4797 86.7833 51.2516 86.5056 51.1683 86.1029L51.1623 86.0553L51.1604 86.0494C51.1584 86.0355 51.1584 86.0236 51.1564 86.0117C51.1524 85.9264 51.1465 85.7995 51.1425 85.6368V80.1525H51.1683L51.1505 79.8133C51.1366 79.1211 51.2496 78.5915 51.4816 78.2364C51.8565 77.6731 52.4455 77.3994 53.2805 77.3994C54.0559 77.3994 54.6093 77.6196 54.9722 78.0678C55.0991 78.2325 55.2003 78.5121 55.2697 78.8969C55.2975 79.0576 55.3173 79.2242 55.3312 79.3849C55.3391 79.5257 55.3431 79.6487 55.3371 79.7598V85.3433C55.3371 85.4167 55.3351 85.498 55.3292 85.5932V86.0097C55.3292 86.0434 55.3292 86.0692 55.3272 86.0851L55.3252 86.091C55.2419 86.5016 55.0158 86.7833 54.6271 86.9539L54.4327 87.0431V87.7195H56.418L56.5886 87.6758L56.7532 87.4953C56.779 87.4616 56.8047 87.4279 56.8385 87.3882C56.9158 87.2851 56.9852 87.172 57.0407 87.061C57.2073 86.7456 57.2926 86.3965 57.2926 86.0216L57.2966 85.0934C57.2986 84.5598 57.3006 84.2801 57.3006 84.2504V79.9224C57.3006 79.5138 57.2252 79.0973 57.0745 78.6867C56.9019 78.2146 56.658 77.8318 56.3486 77.5482Z" fill="white"/>
<path d="M63.6709 80.4422C63.0719 80.4422 62.5225 80.5731 62.0386 80.8309C61.8561 80.9261 61.6876 81.0392 61.5329 81.1701V78.5678C61.5289 78.1334 61.638 77.7982 61.8522 77.58C61.9732 77.463 62.0961 77.4074 62.225 77.4074C62.5344 77.4154 62.7625 77.5423 62.9212 77.7942C63.062 78.0183 63.1314 78.3 63.1274 78.6293C63.1175 79.0061 63.1155 79.3493 63.1195 79.6448V80.0732L63.53 79.9661C64.008 79.8471 64.3392 79.7618 64.5217 79.7142C64.7597 79.6507 64.9401 79.6111 65.0472 79.5992L65.3566 79.5813V78.8851L64.96 78.8534C64.9183 78.8494 64.8905 78.8415 64.8648 78.8336C64.8429 78.8276 64.8291 78.8216 64.8192 78.8157V78.5321C64.8231 78.5023 64.8271 78.4745 64.835 78.4507C64.8707 78.3178 64.9124 78.1949 64.958 78.0897C65.0234 77.9509 65.0968 77.8299 65.1801 77.7248C65.3705 77.4729 65.5966 77.3519 65.8643 77.3519C66.2431 77.3598 66.5327 77.5046 66.7489 77.7942C66.9036 78.0064 67.0305 78.3159 67.1237 78.7145L67.1792 78.9724H67.7504L68.2046 77.2666L68.0955 77.1873L68.0063 77.1218C67.324 76.6934 66.5982 76.4732 65.8505 76.4673C65.1305 76.4673 64.5256 76.6973 64.0516 77.1535C63.889 76.9849 63.7006 76.8461 63.4904 76.739C63.1433 76.5625 62.7367 76.4732 62.2826 76.4732H62.1041C62.0585 76.4732 62.0109 76.4752 61.9732 76.4811C61.8601 76.4871 61.7451 76.499 61.6321 76.5208C61.3187 76.5764 61.0331 76.6676 60.7812 76.7906C60.0296 77.1734 59.6488 77.8359 59.6488 78.7502C59.6468 78.7879 59.6409 78.905 59.6488 84.3576C59.6488 85.4009 60.0573 86.2498 60.8645 86.8786C61.5884 87.4379 62.4749 87.7235 63.4943 87.7235C64.0735 87.7235 64.6308 87.6303 65.1504 87.4478C65.672 87.2673 66.1103 87.0075 66.4474 86.6802C66.7786 86.3648 67.0245 85.988 67.1773 85.5675C67.332 85.151 67.4192 84.6352 67.4331 84.0342C67.4589 82.9949 67.1455 82.1341 66.5029 81.4756C65.8425 80.7932 64.8906 80.4481 63.6709 80.4422ZM65.5569 83.9311C65.5569 84.8733 65.436 85.5437 65.2019 85.9225C64.8271 86.4977 64.2738 86.7794 63.5122 86.7794C62.828 86.7794 62.3421 86.5672 62.0247 86.1308C61.6935 85.6766 61.5249 84.9506 61.5249 83.9747C61.5249 83.225 61.6479 82.6379 61.8899 82.2293C62.231 81.666 62.7526 81.3922 63.4824 81.3922C64.1528 81.3922 64.6704 81.6243 65.0631 82.1023C65.2495 82.3285 65.3784 82.5704 65.4479 82.8223C65.5212 83.0861 65.5569 83.459 65.5569 83.9311Z" fill="white"/>
<path d="M74.9696 80.0613C74.9696 80.1783 74.9458 80.3132 74.8982 80.4639C74.8427 80.6524 74.7594 80.8249 74.6483 80.9777C74.3508 81.3902 73.9185 81.5906 73.3255 81.5906H73.2918C72.6313 81.5826 72.1772 81.3625 71.9035 80.9182C71.8063 80.7615 71.7349 80.581 71.6912 80.3786C71.6734 80.3013 71.6615 80.218 71.6516 80.1426C71.6476 80.0811 71.6456 80.0177 71.6456 79.9562V76.4018L71.2272 76.5247C71.132 76.5485 70.9356 76.5961 70.6441 76.6676L70.063 76.8123C69.7734 76.8917 69.5473 76.9393 69.4006 76.9571L69.0912 76.975V77.693L69.3986 77.7109C69.5612 77.7208 69.6267 77.7525 69.6485 77.7684C69.6624 77.8338 69.6882 78.0441 69.7139 78.7066C69.7417 79.252 69.7536 79.6467 69.7496 79.8808C69.7338 80.5076 69.948 81.0768 70.3863 81.5707C70.9495 82.2154 71.8043 82.5763 72.9189 82.6418C73.0379 82.6517 73.1569 82.6577 73.2719 82.6577C73.8887 82.6577 74.4559 82.5724 74.9656 82.4018V84.8395C74.9656 85.4504 74.799 85.9225 74.4559 86.2775C74.1545 86.587 73.8034 86.7456 73.379 86.7615C72.7186 86.7853 72.0919 86.5969 71.5247 86.1883C70.9574 85.7876 70.6342 85.2679 70.531 84.6015L70.4953 84.3535L69.8766 84.2643L69.1844 86.706L69.4184 86.8309C70.5211 87.422 71.8559 87.7215 73.381 87.7215H73.4107C74.7395 87.7175 75.7074 87.3347 76.2905 86.585C76.5066 86.3053 76.6633 85.978 76.7565 85.6091C76.822 85.3493 76.8557 85.0755 76.8557 84.7939V76.4652H74.9676V80.0613H74.9696Z" fill="white"/>
<path d="M86.056 81.7949C86.054 81.7849 86.054 81.773 86.052 81.7631C86.0421 81.6818 86.0282 81.6044 86.0143 81.541C85.9727 81.295 85.9251 81.1046 85.8696 80.9618C85.6117 80.2557 85.114 79.6507 84.394 79.1628C84.1917 79.018 83.9121 78.8752 83.5372 78.7244C83.3984 78.6669 83.2437 78.6054 83.0613 78.532L82.8391 78.4626L82.6249 78.3833C82.3433 78.2801 82.1747 78.2167 82.1311 78.1988C81.8931 78.0778 81.7186 77.9291 81.6135 77.7545C81.5599 77.5958 81.554 77.4748 81.5937 77.4114C81.6075 77.3895 81.673 77.3102 81.9526 77.2031L82.1609 77.1158V76.4533L81.8078 76.4712C81.7206 76.4752 81.6135 76.4831 81.5044 76.493H79.8047L79.7869 76.7985C79.7215 77.6573 79.8861 78.3218 80.2787 78.77C80.4334 78.9505 80.6298 79.1053 80.8678 79.2322C80.9531 79.2778 81.0522 79.3254 81.1712 79.375L81.5044 79.5079C82.0319 79.6944 82.494 79.8907 82.8729 80.0891C83.4738 80.4163 83.8625 80.8626 84.0628 81.4557C84.1283 81.6441 84.1679 81.8365 84.1818 82.0269C84.1858 82.0844 84.1858 82.14 84.1818 82.2074V82.2729H84.3801L84.1818 82.2987L84.1739 83.8775C84.1739 84.181 84.1759 84.4012 84.1818 84.5341C84.1957 85.1529 83.9775 85.6825 83.5134 86.1546C83.1624 86.5136 82.732 86.7079 82.2085 86.7476H81.9923C81.6373 86.7397 81.3319 86.6901 81.0899 86.6028C80.8777 86.5235 80.6337 86.3827 80.36 86.1823C79.7948 85.7817 79.4715 85.262 79.3744 84.5936L79.3367 84.3535L78.71 84.2663L78.0258 86.7L78.2598 86.825C79.3585 87.4161 80.6833 87.7156 82.1946 87.7156H82.2303C83.5769 87.7116 84.6161 87.2693 85.3222 86.4005C85.5741 86.0831 85.7704 85.7202 85.9073 85.3235C86.0144 85.0081 86.0679 84.7146 86.0679 84.4507V81.8841L86.06 81.7949H86.056Z" fill="white"/>
<path d="M96.7715 86.9381C96.4522 86.8409 96.2519 86.581 96.1627 86.1447C96.127 85.9523 96.1091 85.4882 96.1091 84.7622V83.4432C96.1091 81.9298 95.8612 80.8884 95.3476 80.2577C94.818 79.6151 93.9533 79.2898 92.7792 79.2898C91.5873 79.2898 90.6928 79.6369 90.1078 80.3212L90.1177 78.7899L90.1316 78.5261C90.1554 77.7089 90.1693 77.1575 90.1752 76.8778L90.1931 76.3641L89.7131 76.5605C89.13 76.8104 88.4736 76.981 87.7477 77.0702L87.472 77.1218V77.8319L87.7834 77.8497C88.0928 77.8636 88.1701 77.9906 88.2019 78.0858C88.2138 78.1314 88.2237 78.2048 88.2316 78.2941C88.2415 78.4329 88.2455 78.6412 88.2455 78.9109V84.9447C88.2455 85.9582 88.1582 86.3688 88.0848 86.5315C87.9936 86.7278 87.831 86.8587 87.5831 86.9341L87.3491 87.0055V87.7354L87.7199 87.6997C87.9738 87.672 88.1721 87.6581 88.307 87.6581H89.9808C90.2942 87.662 90.5302 87.6759 90.6889 87.6997L91.0558 87.7354V87.0055L90.8217 86.9341C90.4687 86.829 90.2565 86.5136 90.1732 85.98C90.1613 85.8848 90.1455 85.5258 90.1455 84.3576V83.2746C90.1455 82.4038 90.3319 81.6997 90.6988 81.18C91.0974 80.5969 91.6765 80.3132 92.4698 80.3132C93.1422 80.3132 93.6043 80.5096 93.8819 80.9142C94.1834 81.3605 94.3361 82.1519 94.3361 83.2607V84.7523C94.3361 85.9027 94.2468 86.351 94.1715 86.5255C94.0902 86.7258 93.9275 86.8607 93.6737 86.9341L93.4397 87.0055V87.7196L93.7986 87.7017C94.0148 87.6839 94.1814 87.672 94.3004 87.666C94.3857 87.662 94.4432 87.6581 94.469 87.6581H95.9346C96.244 87.662 96.48 87.6759 96.6407 87.6997L97.0016 87.7354V87.0035L96.7715 86.9381Z" fill="white"/>
<path d="M108.842 77.3221C108.215 76.7866 107.503 76.5109 106.724 76.5009H106.678C105.625 76.5009 104.778 76.852 104.155 77.5482C103.907 77.2567 103.58 77.0167 103.178 76.8342C102.69 76.614 102.142 76.5009 101.547 76.5009C101.228 76.5009 100.895 76.5545 100.556 76.6616C100.157 76.7886 99.7981 76.977 99.4887 77.2249C98.6775 77.8676 98.267 78.8216 98.267 80.0613V86.1308C98.2868 86.4203 98.3681 86.7218 98.5069 87.0233C98.5585 87.1344 98.62 87.2514 98.6914 87.3685C98.7152 87.4061 98.741 87.4478 98.7767 87.5073L98.9353 87.7552H100.964V87.057L100.722 86.9876C100.579 86.944 100.449 86.8289 100.332 86.6405C100.203 86.4362 100.141 86.2399 100.141 86.0375V80.0494C100.123 79.1112 100.328 78.4229 100.75 78.0005C101.03 77.7208 101.357 77.5859 101.75 77.5859C102.186 77.5859 102.525 77.7109 102.785 77.9648C102.94 78.1195 103.059 78.3138 103.14 78.5459C103.17 78.6253 103.189 78.7046 103.201 78.78L103.207 78.8038C103.213 78.8256 103.213 78.8375 103.213 78.8434L103.217 78.8811C103.219 78.8891 103.221 78.897 103.221 78.901V82.1896C103.221 82.9473 103.199 83.2408 103.182 83.3479C103.11 83.7129 102.965 83.9231 102.737 83.9926L102.503 84.064V84.7661L102.872 84.7304C103.094 84.7066 103.261 84.6947 103.368 84.6947H104.98C105.089 84.6947 105.236 84.7066 105.421 84.7304L105.788 84.7661V84.062L105.542 83.9926C105.452 83.9668 105.179 83.8914 105.083 83.2388C105.079 83.1932 105.076 83.0861 105.07 82.9135C105.06 82.6874 105.056 82.3681 105.056 81.9337V78.895C105.056 78.8355 105.076 78.7224 105.167 78.5201C105.258 78.3257 105.377 78.1512 105.522 78.0024C105.801 77.7228 106.121 77.5879 106.5 77.5879C106.65 77.5879 106.797 77.6117 106.942 77.6573C107.136 77.7188 107.311 77.8219 107.459 77.9628C107.886 78.3674 108.114 79.0755 108.136 80.0613V86.0375C108.136 86.2399 108.072 86.4382 107.945 86.6385C107.824 86.827 107.689 86.944 107.545 86.9856L107.311 87.057V87.7532H109.167L109.357 87.7215L109.518 87.4716C109.54 87.4319 109.562 87.3942 109.584 87.3605C109.655 87.2475 109.716 87.1344 109.768 87.0213C109.907 86.7179 109.984 86.4144 110 86.107V80.0573C110.002 78.9109 109.611 77.9905 108.842 77.3221Z" fill="white"/>
<path d="M24.0191 96.8833C23.7156 96.5957 23.3725 96.3637 22.9937 96.1891C23.4558 95.8539 23.6978 95.3997 23.7157 94.8344C23.7414 94.1045 23.3864 93.5392 22.6546 93.1524C22.1033 92.8727 21.4805 92.7299 20.8022 92.7299C20.4433 92.7299 20.0089 92.7775 19.5111 92.8688C19.0907 92.9481 18.7019 93.0691 18.3668 93.2218L18.0752 93.3309L18.5849 94.9236H19.17L19.2057 94.6321C19.2236 94.4595 19.3465 94.275 19.5667 94.0826C19.8661 93.8307 20.2271 93.6959 20.6654 93.6701C20.9946 93.6562 21.2624 93.7177 21.4567 93.8446C21.6412 93.9696 21.7602 94.1977 21.8078 94.523C21.8613 94.9256 21.8038 95.239 21.6312 95.4592C21.538 95.5822 21.419 95.6714 21.2564 95.7349C21.2048 95.7587 21.1572 95.7765 21.1116 95.7865C21.0977 95.7904 21.0858 95.7924 21.0759 95.7964L21.0283 95.8023H21.0263C19.9177 95.8222 18.9836 96.1653 18.2557 96.8258C17.5001 97.4962 17.0975 98.4701 17.0578 99.7217C17.042 100.321 17.1352 100.912 17.3335 101.475C17.5338 102.05 17.8174 102.522 18.1764 102.877C18.9241 103.609 19.8998 103.98 21.0819 103.98C22.2659 103.98 23.2377 103.629 23.9655 102.941C24.3325 102.616 24.628 102.163 24.8441 101.592C25.0464 101.033 25.1496 100.43 25.1496 99.7971C25.1476 98.5891 24.7688 97.6093 24.0191 96.8833ZM22.8033 102.161C22.4523 102.731 21.901 103.006 21.1156 103.006C20.4096 103.006 19.8919 102.774 19.5329 102.296C19.1363 101.775 18.936 100.916 18.936 99.7435C18.936 98.9164 19.0986 98.2361 19.4219 97.7204C19.8165 97.0975 20.3659 96.7941 21.1037 96.7941C21.78 96.7941 22.3016 97.042 22.6923 97.5518C23.0751 98.0695 23.2694 98.8093 23.2694 99.7554C23.2674 100.838 23.1108 101.65 22.8033 102.161Z" fill="white"/>
<path d="M34.4332 98.0594C34.4312 98.0495 34.4312 98.0376 34.4292 98.0277C34.4193 97.9464 34.4054 97.869 34.3916 97.8055C34.3499 97.5596 34.3023 97.3692 34.2468 97.2264C33.989 96.5202 33.4912 95.9153 32.7712 95.4273C32.5689 95.2826 32.2893 95.1397 31.9145 94.989C31.7756 94.9315 31.6209 94.87 31.4385 94.7966L31.2163 94.7272L31.0022 94.6478C30.7205 94.5447 30.552 94.4812 30.5083 94.4634C30.2703 94.3424 30.0958 94.1936 29.9907 94.0191C29.9371 93.8604 29.9312 93.7394 29.9709 93.6759C29.9847 93.6541 30.0502 93.5748 30.3298 93.4677L30.5381 93.3804V92.7179L30.185 92.7358C30.0978 92.7397 29.9907 92.7477 29.8816 92.7576H28.182L28.1641 93.063C28.0986 93.9219 28.2633 94.5864 28.6559 95.0346C28.8106 95.2151 29.007 95.3698 29.245 95.4968C29.3303 95.5424 29.4294 95.59 29.5484 95.6396L29.8816 95.7725C30.4092 95.9589 30.8713 96.1553 31.2501 96.3536C31.851 96.6809 32.2397 97.1272 32.44 97.7203C32.5055 97.9087 32.5451 98.1011 32.559 98.2915C32.563 98.349 32.563 98.4046 32.559 98.472V98.5374H32.7573L32.559 98.5632L32.5511 100.142C32.5511 100.446 32.5531 100.666 32.559 100.799C32.5729 101.417 32.3547 101.947 31.8907 102.419C31.5396 102.778 31.1093 102.973 30.5857 103.012H30.3675C30.0125 103.004 29.7071 102.955 29.4651 102.867C29.2529 102.788 29.009 102.647 28.7353 102.447C28.17 102.046 27.8468 101.527 27.7496 100.858L27.7119 100.618L27.0872 100.531L26.403 102.965L26.637 103.09C27.7357 103.681 29.0605 103.98 30.5718 103.98H30.6075C31.9541 103.976 32.9933 103.534 33.6994 102.665C33.9513 102.348 34.1476 101.985 34.2845 101.588C34.3916 101.273 34.4451 100.979 34.4451 100.715V98.1487L34.4372 98.0594H34.4332Z" fill="white"/>
<path d="M45.1507 103.203C44.8314 103.105 44.6311 102.846 44.5419 102.409C44.5062 102.217 44.4883 101.753 44.4883 101.027V99.7077C44.4883 98.1943 44.2404 97.153 43.7267 96.5222C43.1972 95.8796 42.3325 95.5543 41.1584 95.5543C39.9665 95.5543 39.072 95.9014 38.4869 96.5857L38.4968 95.0545L38.5107 94.7907C38.5345 93.9735 38.5484 93.4221 38.5544 93.1424L38.5722 92.6287L38.0923 92.825C37.5092 93.0749 36.8527 93.2455 36.1268 93.3348L35.8512 93.3864V94.0964L36.1625 94.1143C36.4719 94.1282 36.5493 94.2551 36.581 94.3503C36.5929 94.3959 36.6028 94.4693 36.6108 94.5586C36.6207 94.6974 36.6246 94.9057 36.6246 95.1755V101.209C36.6246 102.223 36.5374 102.633 36.464 102.796C36.3728 102.992 36.2101 103.123 35.9622 103.199L35.7282 103.27V104L36.0991 103.964C36.3529 103.937 36.5513 103.923 36.6861 103.923H38.36C38.6734 103.927 38.9094 103.94 39.068 103.964L39.4349 104V103.27L39.2009 103.199C38.8479 103.094 38.6357 102.778 38.5524 102.245C38.5405 102.149 38.5246 101.79 38.5246 100.622V99.5391C38.5246 98.6684 38.711 97.9642 39.078 97.4446C39.4766 96.8614 40.0557 96.5778 40.849 96.5778C41.5213 96.5778 41.9834 96.7741 42.2611 97.1788C42.5626 97.6251 42.7153 98.4165 42.7153 99.5252V101.017C42.7153 102.167 42.626 102.616 42.5506 102.79C42.4693 102.99 42.3067 103.125 42.0529 103.199L41.8188 103.27V103.984L42.1778 103.966C42.394 103.948 42.5606 103.937 42.6796 103.931C42.7648 103.927 42.8224 103.923 42.8481 103.923H44.3138C44.6232 103.927 44.8592 103.94 45.0198 103.964L45.3808 104V103.268L45.1507 103.203Z" fill="white"/>
<path d="M53.3596 93.7812C53.0205 93.4519 52.5821 93.1901 52.0546 93.0056C51.533 92.8231 50.9757 92.7299 50.3986 92.7299C49.3117 92.7299 48.4094 93.0453 47.7152 93.6701C47.0151 94.2988 46.6601 95.12 46.6601 96.1117V98.8053C46.676 99.3349 46.7831 99.8288 46.9774 100.269C47.0528 100.446 47.142 100.616 47.2432 100.771C47.263 100.801 47.2829 100.83 47.3027 100.86C46.7018 101.001 46.2397 101.257 45.9263 101.624L45.8152 101.786L46.1187 102.735L46.4955 102.429C46.6621 102.294 46.8684 102.173 47.1103 102.072C47.3662 101.971 47.5764 101.927 47.7331 101.941C48.7723 102.05 49.6588 102.401 50.3668 102.981C50.587 103.161 50.7794 103.357 50.944 103.572C50.9936 103.629 51.0352 103.687 51.0788 103.754L51.2137 103.984H53.5758L53.2941 103.52L53.2862 103.441L53.2148 103.405C53.1831 103.363 53.1414 103.314 53.0859 103.252C52.9431 103.104 52.7547 102.937 52.5286 102.754C51.8126 102.193 50.7933 101.588 49.514 100.965C49.1848 100.761 48.9389 100.501 48.7862 100.196C48.685 99.9855 48.6136 99.7316 48.57 99.4361C48.8516 99.6424 49.1967 99.799 49.6053 99.9002C49.8036 99.9498 50.0118 99.9855 50.228 100.005C50.3034 100.019 50.3768 100.027 50.4521 100.029C50.4819 100.035 50.5116 100.037 50.5434 100.037H50.5949C51.8285 100.033 52.7884 99.6899 53.4429 99.0195C53.7999 98.6625 54.0537 98.2182 54.1946 97.7045C54.2541 97.5081 54.2977 97.3018 54.3235 97.0837C54.3374 96.917 54.3453 96.7484 54.3453 96.5838C54.3354 95.8638 54.2659 95.3203 54.1331 94.9197C53.9883 94.523 53.7285 94.1402 53.3596 93.7812ZM52.364 97.643C52.2946 97.8969 52.1657 98.1428 51.9812 98.3709C51.6203 98.8014 51.0987 99.0096 50.3847 99.0096C49.6549 99.0096 49.1372 98.7339 48.7981 98.1647C48.6831 97.9782 48.6116 97.7739 48.5819 97.5557C48.564 97.407 48.5542 97.1174 48.5542 96.6909V96.4965C48.5542 95.481 48.7068 94.7431 49.0063 94.3008C49.2939 93.8764 49.754 93.6701 50.4125 93.6701C51.178 93.6701 51.7333 93.9517 52.1082 94.5309C52.3501 94.9117 52.4711 95.5841 52.4711 96.5243C52.4711 97.0023 52.4354 97.3772 52.364 97.643Z" fill="white"/>
<path d="M63.1291 94.7927H63.1073C63.02 94.275 62.7602 93.8387 62.3319 93.4955C61.8678 93.1326 61.2232 92.8866 60.414 92.7676C60.2157 92.7438 59.9817 92.7299 59.7239 92.7299H59.4522L59.0317 92.7577L59.0257 92.7597C57.9488 92.8747 57.1575 93.323 56.6716 94.1005C56.5149 94.3643 56.3959 94.6579 56.3206 94.9693C56.2908 95.0863 56.267 95.2033 56.2512 95.3164C56.2452 95.358 56.2432 95.4017 56.2432 95.4493C56.2392 95.4869 56.2353 95.5226 56.2353 95.5484C56.2254 95.8083 56.2095 96.0205 56.1857 96.1851C56.1738 96.2863 56.1619 96.32 56.1659 96.318L56.148 96.3418C56.148 96.3418 56.1084 96.3954 55.8922 96.4113L55.5768 96.4291V97.1471L55.8803 97.165C56.031 97.1789 56.2591 97.2265 56.5665 97.3098C56.6637 97.3336 56.8144 97.3673 57.0167 97.4109C57.1892 97.4506 57.3221 97.4784 57.4034 97.4942C57.5423 97.5319 57.6454 97.5617 57.7009 97.5775L58.173 97.7779L58.1551 97.2562C58.1353 96.8516 58.1293 96.324 58.1333 95.6893V95.4909C58.1372 94.9792 58.2186 94.5825 58.3713 94.3127C58.5795 93.9557 58.9444 93.7474 59.472 93.68C60.057 93.6443 60.4973 93.7911 60.8246 94.1303C60.9733 94.279 61.0864 94.4595 61.1578 94.6678C61.2212 94.8383 61.251 95.005 61.247 95.1656V101.1C61.247 101.711 61.0824 102.181 60.7433 102.532C60.4478 102.842 60.1027 102.998 59.6882 103.016C59.0238 103.05 58.401 102.858 57.8338 102.451C57.2666 102.05 56.9433 101.531 56.8402 100.862L56.8045 100.626L56.1798 100.525L55.4955 102.957L55.7196 103.088C56.8223 103.679 58.1591 103.978 59.6901 103.978H59.7199C61.0447 103.974 62.0086 103.593 62.5837 102.848C62.7999 102.568 62.9566 102.241 63.0478 101.876C63.1192 101.616 63.1549 101.34 63.1549 101.057V95.9828L63.141 94.9831L63.1291 94.7927Z" fill="white"/>
<path d="M72.6825 97.3196C71.9388 96.5461 71.0086 96.1553 69.9159 96.1553C69.305 96.1553 68.7497 96.2942 68.2658 96.5659C68.0694 96.673 67.889 96.8019 67.7283 96.9487V94.6042V94.5884L67.7422 94.4337C67.7462 94.3841 67.7521 94.3345 67.7601 94.2889C67.7799 94.1837 67.8116 94.0925 67.8552 94.0191C67.9723 93.8267 68.1964 93.7256 68.5256 93.7057H72.8293V92.7279L68.3967 92.7358C67.7164 92.7358 67.1353 92.9084 66.6673 93.2475C66.1298 93.6383 65.8502 94.1937 65.8402 94.8998V102.118C65.8006 102.417 65.7133 102.679 65.5824 102.897C65.4634 103.098 65.3405 103.213 65.2234 103.242L64.9656 103.298V103.986H67.0441L67.1314 103.847C67.1393 103.837 67.1452 103.827 67.1512 103.818L67.175 103.784C67.1908 103.76 67.2067 103.728 67.2226 103.702C67.2781 103.617 67.3297 103.53 67.3793 103.443C67.4586 103.306 67.526 103.175 67.5816 103.054C67.8215 103.282 68.0913 103.472 68.3868 103.621C68.8667 103.863 69.3982 103.986 69.9674 103.986C71.0503 103.986 71.9646 103.617 72.6885 102.887C73.4064 102.155 73.7693 101.223 73.7693 100.118C73.7693 99.0175 73.4044 98.0773 72.6825 97.3196ZM71.9051 100.023C71.9051 100.896 71.7464 101.604 71.4331 102.126C71.0622 102.723 70.5029 103.014 69.7235 103.014C69.0313 103.014 68.5355 102.788 68.2083 102.324C67.8711 101.844 67.7005 101.084 67.7005 100.067C67.7005 99.2079 67.8433 98.5117 68.127 98C68.4701 97.4069 68.9897 97.1193 69.7175 97.1193C70.3859 97.1193 70.9015 97.3633 71.2962 97.8671C71.6988 98.3828 71.9051 99.1087 71.9051 100.023Z" fill="white"/>
<path d="M82.1229 98.0635C82.0713 98.0476 82.0118 98.0317 81.9483 98.0178L81.3752 97.883C81.2443 97.8473 81.1412 97.8155 81.0737 97.7897L80.6235 97.6092V101.277C80.6196 101.755 80.4847 102.147 80.211 102.479C79.8997 102.854 79.4871 103.034 78.9358 103.016C78.4082 103.004 78.0036 102.8 77.7002 102.393C77.4265 102.024 77.2877 101.55 77.2877 100.985V92.6426L76.8038 92.8271C76.0838 93.1345 75.4432 93.321 74.8998 93.3864L74.6122 93.4221V94.158L74.9137 94.1738C74.9197 94.1738 74.9494 94.1798 75.0228 94.2095C75.0863 94.2373 75.1477 94.273 75.2052 94.3147C75.3976 94.4615 75.3937 94.5725 75.3917 94.6162V100.85C75.3818 102.013 75.7982 102.871 76.6312 103.405C76.9505 103.607 77.3293 103.758 77.7518 103.853C78.079 103.933 78.438 103.978 78.8227 103.988H78.9794C79.6101 103.988 80.1793 103.881 80.6711 103.671C81.0499 103.504 81.3811 103.28 81.6509 103.004C81.9226 102.729 82.1288 102.409 82.2677 102.056C82.3867 101.757 82.4442 101.467 82.4382 101.193C82.4283 100.973 82.4382 100.569 82.466 99.9914C82.4918 99.2972 82.5176 99.0869 82.5275 99.0294C82.5513 99.0096 82.6147 98.9739 82.7813 98.964L83.0907 98.9461V98.2459L82.7893 98.2102C82.6405 98.1924 82.4164 98.1448 82.1229 98.0635Z" fill="white"/>
<path d="M92.1205 93.8128C91.3312 93.0928 90.3019 92.7279 89.0623 92.7279C87.8545 92.7279 86.8371 93.071 86.0398 93.7494C85.7086 94.031 85.4448 94.3821 85.2564 94.7927C85.068 95.1993 84.9708 95.6337 84.9669 96.08C84.9609 96.2247 84.9589 96.909 84.9589 98.1725C84.9589 98.6228 84.9609 99.1643 84.9669 99.799V102.286C84.9669 102.661 85.0521 103.014 85.2207 103.334C85.2822 103.447 85.3536 103.556 85.429 103.659C85.4607 103.7 85.4944 103.744 85.5281 103.782L85.7046 103.982H87.8287V103.306L87.6324 103.217C87.2516 103.048 87.0235 102.77 86.9402 102.368L86.9343 102.32L86.9323 102.314C86.9303 102.3 86.9303 102.288 86.9283 102.276C86.9244 102.191 86.9184 102.064 86.9144 101.901V96.4171H86.9402L86.9224 96.078C86.9085 95.3857 87.0215 94.8561 87.2536 94.5011C87.6284 93.9378 88.2174 93.6641 89.0524 93.6641C89.8278 93.6641 90.3812 93.8842 90.7441 94.3325C90.8711 94.4971 90.9722 94.7768 91.0416 95.1616C91.0694 95.3223 91.0892 95.4889 91.1031 95.6495C91.111 95.7904 91.115 95.9133 91.109 96.0244V101.608C91.109 101.681 91.107 101.763 91.1011 101.858V102.274C91.1011 102.308 91.1011 102.334 91.0991 102.35L91.0971 102.356C91.0138 102.766 90.7878 103.048 90.399 103.219L90.2047 103.308V103.984H92.1899L92.3605 103.94L92.5251 103.76C92.5509 103.726 92.5766 103.693 92.6104 103.653C92.6877 103.55 92.7571 103.437 92.8127 103.326C92.9793 103.01 93.0645 102.661 93.0645 102.286L93.0685 101.358C93.0705 100.824 93.0725 100.545 93.0725 100.515V96.1871C93.0725 95.7785 92.9971 95.3619 92.8464 94.9513C92.6738 94.4793 92.4299 94.0965 92.1205 93.8128Z" fill="white"/>
</svg>
