<svg width="28" height="28" viewBox="0 0 28 28" fill="none" xmlns="http://www.w3.org/2000/svg">
<g clip-path="url(#clip0_72_2419)">
<path d="M25.375 14.0004C25.375 14.0562 25.375 14.1098 25.375 14.1667C25.3378 15.7264 24.7592 17.5004 22.3125 17.5004C19.7816 17.5004 19.25 15.5973 19.25 14.0004V9.62544C19.2503 9.50549 19.2259 9.38676 19.1783 9.27664C19.1308 9.16652 19.0611 9.06735 18.9736 8.98529C18.8861 8.90323 18.7827 8.84004 18.6697 8.79964C18.5568 8.75924 18.4367 8.74249 18.317 8.75044C18.0916 8.76979 17.882 8.87391 17.7304 9.04178C17.5787 9.20965 17.4964 9.42878 17.5 9.65497V10.0925C16.7101 9.38452 15.7243 8.93244 14.6724 8.7958C13.6205 8.65915 12.5519 8.84434 11.6073 9.32698C10.6627 9.80961 9.8865 10.5671 9.38087 11.4995C8.87525 12.432 8.66395 13.4957 8.77479 14.5507C8.88564 15.6056 9.31343 16.6022 10.0018 17.4092C10.6902 18.2162 11.6069 18.7958 12.6312 19.0715C13.6554 19.3473 14.7392 19.3063 15.7397 18.954C16.7403 18.6017 17.6106 17.9546 18.2361 17.0979C18.3454 17.2892 18.469 17.472 18.6058 17.6448C19.1931 18.3754 20.312 19.2504 22.3125 19.2504C22.6504 19.2516 22.9877 19.2241 23.3209 19.1684C23.4033 19.1547 23.4879 19.1648 23.5647 19.1976C23.6415 19.2304 23.7074 19.2845 23.7544 19.3535C23.8014 19.4225 23.8277 19.5036 23.8302 19.5871C23.8327 19.6705 23.8112 19.753 23.7683 19.8247C22.7399 21.5497 21.2734 22.9718 19.5176 23.9467C17.7618 24.9216 15.7793 25.4146 13.7714 25.3754C7.77984 25.2551 2.86562 20.4383 2.63375 14.45C2.57444 12.9387 2.8171 11.4308 3.34754 10.0145C3.87797 8.59812 4.68552 7.30178 5.72296 6.20127C6.76039 5.10075 8.00688 4.21818 9.38949 3.60517C10.7721 2.99216 12.2631 2.66102 13.7752 2.63113C15.2873 2.60124 16.7902 2.87319 18.196 3.43109C19.6017 3.98898 20.8821 4.82161 21.9622 5.88026C23.0423 6.93891 23.9005 8.20233 24.4865 9.59661C25.0725 10.9909 25.3745 12.488 25.375 14.0004ZM10.5 14.0004C10.5 14.6927 10.7053 15.3694 11.0899 15.9449C11.4744 16.5205 12.0211 16.9691 12.6606 17.234C13.3001 17.4989 14.0039 17.5682 14.6828 17.4332C15.3617 17.2981 15.9854 16.9648 16.4749 16.4753C16.9644 15.9858 17.2977 15.3622 17.4327 14.6833C17.5678 14.0043 17.4985 13.3006 17.2336 12.661C16.9687 12.0215 16.5201 11.4749 15.9445 11.0903C15.3689 10.7057 14.6922 10.5004 14 10.5004C13.0717 10.5004 12.1815 10.8692 11.5251 11.5256C10.8687 12.1819 10.5 13.0722 10.5 14.0004Z" fill="#133025"/>
</g>
<defs>
<clipPath id="clip0_72_2419">
<rect width="28" height="28" fill="white"/>
</clipPath>
</defs>
</svg>
