<svg width="28" height="28" viewBox="0 0 28 28" fill="none" xmlns="http://www.w3.org/2000/svg">
<g clip-path="url(#clip0_72_2410)">
<path d="M25.8431 17.7007C25.6117 17.9964 25.2914 18.2099 24.9294 18.3095C24.5674 18.4092 24.1829 18.3898 23.8328 18.2542L18.4734 16.3521L18.4417 16.3401C18.1737 16.2329 17.9364 16.061 17.7509 15.8399C17.5654 15.6187 17.4375 15.355 17.3786 15.0725L16.6994 11.8186C14.9372 11.2181 13.0251 11.2224 11.2656 11.8306L10.6203 15.0593C10.5634 15.345 10.4361 15.612 10.2498 15.8361C10.0636 16.0601 9.8244 16.2341 9.55391 16.3423L9.52219 16.3543L4.16281 18.2542C3.96387 18.3326 3.75211 18.3734 3.53828 18.3745C3.27211 18.375 3.00934 18.3147 2.76996 18.1984C2.53058 18.082 2.3209 17.9125 2.15687 17.7029C0.272344 15.2726 0.483437 12.0471 2.66984 9.85965C8.81125 3.71605 19.1855 3.71605 25.3302 9.85965C27.5166 12.045 27.7277 15.2704 25.8431 17.7007ZM23.625 20.9995H4.375C4.14294 20.9995 3.92038 21.0917 3.75628 21.2558C3.59219 21.4199 3.5 21.6424 3.5 21.8745C3.5 22.1066 3.59219 22.3291 3.75628 22.4932C3.92038 22.6573 4.14294 22.7495 4.375 22.7495H23.625C23.8571 22.7495 24.0796 22.6573 24.2437 22.4932C24.4078 22.3291 24.5 22.1066 24.5 21.8745C24.5 21.6424 24.4078 21.4199 24.2437 21.2558C24.0796 21.0917 23.8571 20.9995 23.625 20.9995Z" fill="#133025"/>
</g>
<defs>
<clipPath id="clip0_72_2410">
<rect width="28" height="28" fill="white"/>
</clipPath>
</defs>
</svg>
