<svg width="24" height="24" viewBox="0 0 24 24" fill="none" xmlns="http://www.w3.org/2000/svg">
<g clip-path="url(#clip0_59_965)">
<path d="M19.5 7.50011C19.3011 7.50011 19.1103 7.57913 18.9697 7.71978C18.829 7.86044 18.75 8.0512 18.75 8.25011V9.75011H17.7047L17.25 5.17511C17.2306 4.98659 17.1405 4.81241 16.9978 4.68761L12.9788 1.11386L12.96 1.09793C12.6905 0.873426 12.3508 0.750488 12 0.750488C11.6492 0.750488 11.3095 0.873426 11.04 1.09793L11.0212 1.11386L7.00125 4.68761C6.85843 4.81216 6.76856 4.98653 6.75 5.17511L6.29531 9.75011H5.25V8.25011C5.25 8.0512 5.17098 7.86044 5.03033 7.71978C4.88968 7.57913 4.69891 7.50011 4.5 7.50011C4.30109 7.50011 4.11032 7.57913 3.96967 7.71978C3.82902 7.86044 3.75 8.0512 3.75 8.25011V10.5001C3.75 10.699 3.82902 10.8898 3.96967 11.0304C4.11032 11.1711 4.30109 11.2501 4.5 11.2501H6.14438L5.25656 20.1076C5.23671 20.3157 5.26055 20.5256 5.32658 20.7239C5.3926 20.9222 5.49934 21.1046 5.63995 21.2592C5.78057 21.4139 5.95195 21.5374 6.14311 21.622C6.33427 21.7065 6.54098 21.7501 6.75 21.7501H17.25C17.4593 21.7501 17.6662 21.7062 17.8576 21.6214C18.0489 21.5366 18.2204 21.4127 18.3609 21.2576C18.5015 21.1026 18.6081 20.9198 18.6738 20.7211C18.7395 20.5224 18.7629 20.3122 18.7425 20.1039L17.8556 11.2501H19.5C19.6989 11.2501 19.8897 11.1711 20.0303 11.0304C20.171 10.8898 20.25 10.699 20.25 10.5001V8.25011C20.25 8.0512 20.171 7.86044 20.0303 7.71978C19.8897 7.57913 19.6989 7.50011 19.5 7.50011ZM8.17875 6.00011H15.8212L16.1962 9.75011H12.75V8.25011C12.75 8.0512 12.671 7.86044 12.5303 7.71978C12.3897 7.57913 12.1989 7.50011 12 7.50011C11.8011 7.50011 11.6103 7.57913 11.4697 7.71978C11.329 7.86044 11.25 8.0512 11.25 8.25011V9.75011H7.80281L8.17875 6.00011ZM6.75 20.2501L7.20094 15.7501H16.7991L17.25 20.2501H6.75Z" fill="#133025"/>
</g>
<defs>
<clipPath id="clip0_59_965">
<rect width="24" height="24" fill="white"/>
</clipPath>
</defs>
</svg>
