<svg width="24" height="24" viewBox="0 0 24 24" fill="none" xmlns="http://www.w3.org/2000/svg">
<g clip-path="url(#clip0_59_955)">
<path d="M23.2397 7.58544C23.2162 7.38634 23.1529 7.194 23.0535 7.01988C22.9541 6.84577 22.8207 6.69345 22.6612 6.572C19.5971 4.24109 15.8499 2.98564 12 3.00012C8.15008 2.98564 4.40285 4.24109 1.33873 6.572C1.17923 6.69345 1.04581 6.84577 0.946435 7.01988C0.847057 7.194 0.783752 7.38634 0.760293 7.58544C0.736714 7.78405 0.753991 7.98538 0.811062 8.17707C0.868134 8.36876 0.963794 8.54675 1.09217 8.70012L10.8422 20.4592C10.9831 20.6294 11.1601 20.7662 11.3603 20.8598C11.5605 20.9533 11.779 21.0012 12 21.0001C12.2203 21.0007 12.4381 20.9525 12.6376 20.859C12.8371 20.7654 13.0135 20.6289 13.154 20.4592L22.904 8.70012C23.0331 8.54705 23.1294 8.36919 23.1871 8.17749C23.2449 7.98579 23.2627 7.78431 23.2397 7.58544ZM18.855 11.2361C16.8648 9.78294 14.4642 8.99986 12 8.99986C9.53572 8.99986 7.13521 9.78294 5.14498 11.2361L2.25842 7.757C5.05972 5.63083 8.48321 4.48627 12 4.50012C15.5168 4.48627 18.9402 5.63083 21.7415 7.757L18.855 11.2361Z" fill="#133025"/>
</g>
<defs>
<clipPath id="clip0_59_955">
<rect width="24" height="24" fill="white"/>
</clipPath>
</defs>
</svg>
